<svg
        xmlns="http://www.w3.org/2000/svg"
        version="1.1"
        viewBox="0 0 64 64"
        width="16px"
        height="16px">
    <g>
        <g id="Layer_1">
            <g>
                <path
                        fill="#059669"
                        d="M32,45.5c-12.6,0-22.8-10.2-22.8-22.8S19.4,0,32,0s7.7,1,11,2.8l-4,7.2c-2.1-1.2-4.6-1.8-7.1-1.8-8,0-14.6,6.5-14.6,14.6s6.5,14.6,14.6,14.6,14.6-6.5,14.6-14.6h8.2c0,12.6-10.2,22.8-22.8,22.8Z"
                />
                <path
                        fill="#059669"
                        d="M44,50.1c-2.7,3.8-7.2,6.1-12,6.1s-9.2-2.3-12-6.1h-8.8c3.5,8.3,11.7,13.9,20.8,13.9s17.3-5.5,20.8-13.9h-8.8Z"
                />
            </g>
        </g>
    </g>
</svg>